# xmcd CD database file
#
# Track frame offsets:
#	150
#	17387
#	35425
#	51837
#	66143
#	98003
#	117658
#	141452
#	161945
#	178326
#
# Disc length: 2565 seconds
#
# Revision: 0
# Processed by: cddbd v1.5.1PL2 Copyright (c) Steve Scherf et al.
# Submitted via: CDex 1.51
#
DISCID=8f0a030a
DTITLE=Lubriphonic - Lubriphonic
DYEAR=2002
DGENRE=Jazz
TTITLE0=Punk
TTITLE1=Girl
TTITLE2=Give It Up
TTITLE3=Stuff I Use
TTITLE4=Eye Contact at the Palace
TTITLE5=Your Eyes
TTITLE6=Speed Dial
TTITLE7=What Can I Do For You
TTITLE8=Holy Rollers
TTITLE9=Looking Glass Ways
EXTD=YEAR: 2002
EXTT0=
EXTT1=
EXTT2=
EXTT3=
EXTT4=
EXTT5=
EXTT6=
EXTT7=
EXTT8=
EXTT9=
PLAYORDER=
